# xmcd
#
# Track frame offsets:
# 182
# 16237
# 32457
# 46240
# 60180
# 74450
# 89822
# 104115
# 119010
# 133552
# 149207
# 163245
#
# Disc length: 2361 seconds
#
#
# Revision: 0
# Processed by: cddbd v1.5.1PL0 Copyright (c) Steve Scherf et al.
# Submitted via: FreeRIP 2.90 
#
DISCID=b409370c
DTITLE=Mike Frajria - Trucker - Guitar
DYEAR=1900
DGENRE=Country
TTITLE0=Fernanda
TTITLE1=Moonchild
TTITLE2=Drink pink
TTITLE3=Cross country
TTITLE4=Nursery on holiday
TTITLE5=Hollywood news
TTITLE6=Dusty boots
TTITLE7=Telegraph stuff
TTITLE8=Soft degree
TTITLE9=Distance
TTITLE10=Frontier song
TTITLE11=Hallo Eddie
EXTD=
EXTT0=
EXTT1=
EXTT2=
EXTT3=
EXTT4=
EXTT5=
EXTT6=
EXTT7=
EXTT8=
EXTT9=
EXTT10=
EXTT11=
PLAYORDER=
